<!--<svg fill="#0D1B2A" width="100" height="100" viewBox="0 0 240 240" xmlns="http://www.w3.org/2000/svg">-->
<!--    <path d="M207.88 38.32c-1.01-1.05-1.97-2.13-3.01-3.17q-1.55-1.53-3.2-3.02A119 119 0 0 0 120 0a119.3 119.3 0 0 0-84.86 35.14C-10.62 80.9-11.6 154.7 32.13 201.68q1.47 1.62 3 3.2c1.04 1.03 2.1 2 3.17 3A119.2 119.2 0 0 0 120 240c32.06 0 62.2-12.47 84.87-35.12 45.76-45.76 46.73-119.56 3.01-166.56M41.33 41.33A110.6 110.6 0 0 1 120 8.74c28.25 0 54.9 10.48 75.5 29.58l-10.01 10.02A96.5 96.5 0 0 0 120 22.92a96.4 96.4 0 0 0-68.65 28.44A96.4 96.4 0 0 0 22.92 120c0 24.48 9 47.53 25.42 65.49L38.31 195.5C-2.01 151.91-1.01 83.67 41.33 41.33m137.98 13.18v.02l-10.15 10.14A73.5 73.5 0 0 0 120 45.89 73.6 73.6 0 0 0 67.61 67.6 73.6 73.6 0 0 0 45.89 120a73.4 73.4 0 0 0 18.77 49.13l-10.14 10.16A87.7 87.7 0 0 1 31.67 120a87.7 87.7 0 0 1 25.88-62.45A87.7 87.7 0 0 1 120 31.67c22.13 0 43.01 8.09 59.31 22.84m6.06 65.49c0 17.45-6.81 33.87-19.16 46.22s-28.75 19.16-46.21 19.16a65 65 0 0 1-42.96-16.21l-.01-.04c-1.1-.94-2.2-1.88-3.24-2.91a60 60 0 0 1-2.93-3.26A64.7 64.7 0 0 1 54.66 120c0-17.46 6.79-33.87 19.14-46.21A64.9 64.9 0 0 1 120 54.65c15.99 0 31.05 5.76 42.95 16.2 1.11.96 2.24 1.9 3.26 2.95q1.54 1.57 2.95 3.24A64.8 64.8 0 0 1 185.37 120M70.84 175.34h.01A73.5 73.5 0 0 0 120 194.13a73.5 73.5 0 0 0 52.39-21.74A73.5 73.5 0 0 0 194.12 120a73.6 73.6 0 0 0-18.76-49.16l10.13-10.12A87.8 87.8 0 0 1 208.34 120a87.7 87.7 0 0 1-25.89 62.46A87.6 87.6 0 0 1 120 208.34a87.8 87.8 0 0 1-59.3-22.85zm127.83 23.33A110.5 110.5 0 0 1 120 231.25a110.4 110.4 0 0 1-75.51-29.57l10.04-10.01a96.4 96.4 0 0 0 65.49 25.42 96.4 96.4 0 0 0 68.65-28.46A96.4 96.4 0 0 0 217.1 120a96.4 96.4 0 0 0-25.43-65.48l10.01-10.02c40.31 43.59 39.35 111.82-3.01 154.17"/>-->
<!--</svg>-->

<svg width="100" height="100" viewBox="0 0 24 24" fill="none" xmlns="http://www.w3.org/2000/svg">
<path d="M11.25 3.899v9.02c0 .33-.16.63-.43.82l-7.21 5.05c-.59.41-1.43.09-1.56-.62-.15-.86.05-1.87.65-2.96l3.12-5.61 2.94-5.29c.23-.41.48-.77.74-1.08.6-.7 1.75-.25 1.75.67m9.14 14.89-7.21-5.05a1 1 0 0 1-.43-.82v-9.02c0-.92 1.15-1.37 1.75-.67.26.31.51.67.74 1.08l2.94 5.29 3.12 5.61c.6 1.09.8 2.1.65 2.96-.13.71-.97 1.03-1.56.62m-15.13.351 6.15-4.1c.33-.22.87-.22 1.2 0l6.15 4.1c1.63 1.09 1.36 1.98-.6 1.98H5.85c-1.95-.01-2.22-.9-.59-1.98" fill="#0D1B2A"/>
</svg>
